<?xml version="1.0" encoding="utf-8"?>
<!-- Generator: Adobe Illustrator 16.0.0, SVG Export Plug-In . SVG Version: 6.00 Build 0)  -->
<!DOCTYPE svg PUBLIC "-//W3C//DTD SVG 1.1//EN" "http://www.w3.org/Graphics/SVG/1.1/DTD/svg11.dtd">
<svg version="1.1" id="Layer_1" xmlns="http://www.w3.org/2000/svg" xmlns:xlink="http://www.w3.org/1999/xlink" x="0px" y="0px"
	 width="95px" height="73px" viewBox="0 0 95 73" enable-background="new 0 0 95 73" xml:space="preserve">
<rect x="-721.167" y="-66.167" fill="#3C2415" stroke="#000000" stroke-miterlimit="10" width="300" height="199.998"/>
<rect x="-412.167" y="-65.667" fill="#3C2415" stroke="#000000" stroke-miterlimit="10" width="300" height="200"/>
<g>
	<g>
		<g>
			<g>
				<path fill="#FCEED4" d="M-592.872-7.389c0,0,2.195,10.771,12.241,15.568l-7.956,4.803C-588.587,12.982-595.769,7-592.872-7.389z
					"/>
				<path fill="#FCEED4" d="M-610.746,10.443c0,0,10.747,2.898,15.118,13.136l5.002-8.281
					C-590.626,15.297-596.249,8.154-610.746,10.443z"/>
			</g>
			<g>
				<path fill="#FCEED4" d="M-549.157-7.405c0,0-2.373,10.877-12.387,15.738l7.926,4.648
					C-553.618,12.982-546.169,6.966-549.157-7.405z"/>
				<path fill="#FCEED4" d="M-531.42,10.839c0,0-10.81,2.656-15.409,12.794l-5.078-8.16
					C-551.907,15.473-545.862,8.226-531.42,10.839z"/>
			</g>
			<g>
				<path fill="#FCEED4" d="M-610.808,55.933c0,0,10.6-2.221,15.189-12.361l4.9,8.053
					C-590.718,51.624-596.362,58.534-610.808,55.933z"/>
				<path fill="#FCEED4" d="M-592.792,74.245c0,0,1.869-10.627,11.879-15.498l-7.359-4.768
					C-588.272,53.979-595.792,59.878-592.792,74.245z"/>
			</g>
			<g>
				<path fill="#FCEED4" d="M-549.308,74.245c0,0-2.215-10.58-12.365-15.148l7.209-5.117
					C-554.464,53.979-546.737,59.794-549.308,74.245z"/>
				<path fill="#FCEED4" d="M-532.029,56.087c0,0-10.435-2.26-14.763-12.516l-4.779,7.57
					C-551.571,51.142-546.538,58.317-532.029,56.087z"/>
			</g>
		</g>
	</g>
	<path fill="#CFBA86" d="M-571.19,10.039h0.002c-0.16,0-0.318-0.014-0.477-0.023C-571.505,10.019-571.351,10.039-571.19,10.039z"/>
	<path fill="#56140F" d="M-571.188,10.039c0.264,0,0.523-0.014,0.779-0.039C-570.669,10.013-570.927,10.039-571.188,10.039
		L-571.188,10.039z"/>
	<path fill="#56140F" d="M-571.665,10.015c-0.102-0.004-0.201-0.012-0.303-0.016C-571.868,10.009-571.765,10.007-571.665,10.015z"/>
	<path fill="#56140F" d="M-548.829,33.938c0.004,0.264,0.02,0.523,0.049,0.779C-548.798,34.457-548.825,34.199-548.829,33.938
		L-548.829,33.938z"/>
	<path fill="#56140F" d="M-571.274,57.628c-0.264,0-0.524,0.014-0.781,0.041C-571.796,57.655-571.538,57.628-571.274,57.628
		L-571.274,57.628z"/>
	<path fill="#56140F" d="M-593.575,32.654c0.02,0.26,0.052,0.516,0.059,0.779c0,0,0,0,0-0.002
		C-593.523,33.17-593.544,32.91-593.575,32.654z"/>
	<g>
		<path fill="#FAEFDE" d="M-557.399,20.096h-2.438c0,0-2.658,1.107-3.986,5.834c0,0-2.217,7.679-2.955,8.417
			c0,0-2.4,2.586-4.412-0.295V27.26c0,0-0.757-5.76-5.113-6.498l-3.471,0.072c0,0-4.209,0.813-6.129,4.063l3.322,4.061
			c0,0,5.244-7.088,8.566-4.725c0,0,1.92,1.771,0.738,4.725c0,0-0.295,5.613-7.975,6.5l2.289,5.167c0,0,3.84-1.329,4.947-2.14
			c0,0,4.756,4.354,1.123,9.673c0,0-1.898,4.578-7.492,0.518c0,0-3.969-4.211-4.855-7.756c0,0-1.351-3.101-1.709-3.396
			c0,0-0.58-0.813-1.318-1.107c0,0-0.074,1.402,0.295,2.068c0,0,3.324,8.86,5.244,10.929c0,0,2.658,5.279,8.787,5.334
			c0,0,5.686-0.461,6.646-6.221v-3.988c0,0-0.969-5.04-5.834-7.458c0,0,1.033-0.59,1.551-1.92c0,0,1.625,3.914,5.611,4.505
			c0,0,1.92-0.517,3.102-1.847c0,0,0.074,8.345,3.545,9.306l2.512,0.221c0,0,4.234-2.049,4.9-8.794V32.1
			C-551.907,32.1-553.337,22.385-557.399,20.096z M-558.077,41.476c-2.301-0.377-3.645-2.694-3.645-6.241
			c0-2.166,1.244-5.945,3.645-11.058c2.311,0,4.188,3.871,4.188,8.648C-553.89,35.418-556.239,41.776-558.077,41.476z"/>
		<path fill="#F9F1DF" d="M-569.511,22.977h2.955c2.732-0.59,4.578-3.988,4.578-3.988l-2.438-3.691
			c-5.76,9.23-11.076,1.033-11.076,1.033l-0.887,0.643C-573.72,21.604-569.511,22.977-569.511,22.977z"/>
		<polygon fill="#F9F1DF" points="-567.073,14.854 -569.657,12.343 -572.39,15.297 -569.179,17.586 		"/>
	</g>
	<path fill="none" d="M-571.19-14.302c-2.19,11.338-7.615,10.165-7.615,16.723c0,1.932,0.722,3.693,1.906,5.035
		c1.769-0.396,3.602-0.611,5.484-0.611c2.018,0,3.977,0.248,5.861,0.701c1.23-1.354,1.98-3.15,1.98-5.125
		C-563.573-3.405-569.731-4.956-571.19-14.302z"/>
	<path fill="none" d="M-617.849,34.031c11.39,1.91,10.348,7.364,16.904,7.202c1.686-0.041,3.223-0.633,4.461-1.592
		c-0.453-1.976-0.699-4.036-0.699-6.157c0-2.039,0.229-4.021,0.648-5.929c-1.328-1.008-2.99-1.592-4.785-1.549
		C-607.144,26.149-608.542,32.344-617.849,34.031z"/>
	<path fill="none" d="M-546.315,39.509c1.369,1.238,3.189,1.986,5.18,1.965c5.826-0.059,7.314-6.231,16.646-7.786
		c-11.362-2.074-10.243-7.513-16.802-7.445c-1.867,0.02-3.57,0.713-4.885,1.844c0.348,1.742,0.531,3.548,0.531,5.398
		C-545.646,35.557-545.882,37.572-546.315,39.509z"/>
	<path fill="none" d="M-578.876,65.259c0.01,5.826,6.17,7.365,7.646,16.709c2.17-11.344,7.6-10.18,7.586-16.738
		c-0.004-2.252-0.99-4.266-2.547-5.658c-1.688,0.359-3.434,0.549-5.225,0.549c-1.703,0-3.365-0.176-4.977-0.502
		C-577.921,61.015-578.88,63.024-578.876,65.259z"/>
	<path fill="#FCEED4" d="M-578.806,2.421c0-6.559,5.425-5.385,7.615-16.723c1.459,9.346,7.617,10.897,7.617,16.723
		c0,1.975-0.75,3.771-1.98,5.125c0.576,0.139,1.146,0.291,1.707,0.469c1.047-0.615,2.014-1.354,2.867-2.207
		c2.609-2.619,4.23-6.221,4.23-10.209c0-12.401-11.871-14.031-14.441-30.861c-2.569,16.83-14.439,18.46-14.439,30.861
		c0,3.988,1.62,7.59,4.23,10.209c0.813,0.814,1.732,1.52,2.723,2.117c0.584-0.176,1.177-0.334,1.777-0.469
		C-578.084,6.115-578.806,4.353-578.806,2.421z"/>
	<path fill="#FCEED4" d="M-534.538,19.35c-3.99,0.041-7.572,1.697-10.166,4.334c-0.734,0.75-1.377,1.586-1.936,2.482
		c0.176,0.631,0.334,1.27,0.463,1.92c1.314-1.131,3.018-1.824,4.885-1.844c6.559-0.068,5.439,5.371,16.802,7.445
		c-9.331,1.555-10.819,7.728-16.646,7.786c-1.99,0.021-3.811-0.727-5.18-1.965c-0.131,0.578-0.273,1.15-0.439,1.713
		c0.633,1.055,1.389,2.025,2.26,2.879c2.646,2.584,6.264,4.168,10.254,4.127c12.399-0.127,13.907-12.013,30.71-14.755
		C-520.387,31.074-522.139,19.223-534.538,19.35z"/>
	<path fill="#FCEED4" d="M-563.644,65.229c0.014,6.559-5.416,5.395-7.586,16.738c-1.477-9.344-7.637-10.883-7.646-16.709
		c-0.004-2.234,0.955-4.244,2.484-5.641c-0.506-0.102-1.006-0.215-1.5-0.348c-1.328,0.686-2.541,1.561-3.584,2.607
		c-2.605,2.623-4.219,6.227-4.213,10.217c0.023,12.4,11.896,14.008,14.498,30.832c2.539-16.834,14.406-18.486,14.383-30.885
		c-0.008-3.99-1.635-7.588-4.248-10.201c-1.064-1.063-2.301-1.947-3.656-2.637c-0.488,0.137-0.98,0.262-1.479,0.367
		C-564.634,60.964-563.647,62.978-563.644,65.229z"/>
	<path fill="#FDF1D6" d="M-600.944,41.233c-6.557,0.162-5.515-5.292-16.904-7.202c9.307-1.688,10.705-7.882,16.529-8.025
		c1.795-0.043,3.457,0.541,4.785,1.549c0.142-0.645,0.301-1.283,0.486-1.908c-0.571-0.838-1.219-1.619-1.949-2.316
		c-2.684-2.545-6.321-4.076-10.311-3.979c-12.396,0.305-13.734,12.212-30.495,15.195c16.888,2.154,18.81,13.981,31.205,13.677
		c3.989-0.098,7.548-1.807,10.103-4.48c0.586-0.615,1.111-1.287,1.582-2c-0.217-0.688-0.406-1.389-0.57-2.102
		C-597.722,40.601-599.259,41.192-600.944,41.233z"/>
	<g>
		<g>
			<path fill="#FDF1D6" d="M-571.274,6.796c14.23,0,25.77,11.925,25.77,26.637c0,14.71-11.539,26.636-25.77,26.636
				c-14.232,0-25.769-11.926-25.769-26.636C-597.043,18.721-585.507,6.796-571.274,6.796 M-571.274,5.796
				c-14.76,0-26.769,12.397-26.769,27.637c0,15.237,12.009,27.636,26.769,27.636c14.761,0,26.77-12.398,26.77-27.636
				C-544.505,18.194-556.514,5.796-571.274,5.796L-571.274,5.796z"/>
		</g>
	</g>
</g>
<g>
	<g>
		<path fill="#FCEED4" d="M-658.04,96.671V83.53h2.285v13.141H-658.04z M-647.511,96.671v-5.688h-6.588v-2.035h6.588V83.53h2.287
			v13.141H-647.511z"/>
		<path fill="#FCEED4" d="M-636.979,96.616c-0.912,0-1.756-0.17-2.529-0.512c-0.775-0.342-1.447-0.811-2.016-1.404
			c-0.57-0.594-1.016-1.299-1.332-2.115c-0.318-0.816-0.479-1.697-0.479-2.646c0-0.959,0.16-1.836,0.479-2.627
			c0.316-0.793,0.762-1.467,1.332-2.025c0.568-0.559,1.24-0.99,2.016-1.297c0.773-0.305,1.617-0.459,2.529-0.459h3.186
			c0.947,0,1.814,0.156,2.602,0.469c0.785,0.313,1.459,0.75,2.023,1.314s1.002,1.238,1.314,2.025c0.313,0.785,0.469,1.652,0.469,2.6
			c0,0.949-0.16,1.83-0.479,2.646c-0.316,0.816-0.762,1.521-1.332,2.115c-0.568,0.594-1.244,1.063-2.023,1.404
			c-0.781,0.342-1.639,0.512-2.574,0.512H-636.979z M-633.794,94.331c0.6,0,1.152-0.107,1.656-0.324s0.938-0.514,1.305-0.891
			c0.365-0.379,0.65-0.832,0.855-1.359c0.203-0.527,0.305-1.098,0.305-1.709c0-0.613-0.102-1.18-0.305-1.701
			c-0.205-0.523-0.49-0.969-0.855-1.342c-0.367-0.371-0.801-0.662-1.305-0.873c-0.504-0.209-1.057-0.314-1.656-0.314h-3.186
			c-0.59,0-1.133,0.105-1.629,0.314c-0.5,0.211-0.928,0.502-1.287,0.873c-0.361,0.373-0.643,0.816-0.848,1.332
			c-0.203,0.516-0.305,1.086-0.305,1.711c0,0.611,0.102,1.182,0.305,1.709c0.205,0.527,0.486,0.98,0.848,1.359
			c0.359,0.377,0.787,0.674,1.287,0.891c0.496,0.217,1.039,0.324,1.629,0.324H-633.794z"/>
		<path fill="#FCEED4" d="M-621.644,96.616V85.817h-4.969V83.53h12.223v2.287h-4.969v10.799H-621.644z"/>
		<path fill="#FCEED4" d="M-612.88,96.616V83.53h11.684v2.287h-9.414v8.514h9.432v2.285H-612.88z M-608.937,90.929v-1.926h7.254
			v1.926H-608.937z"/>
		<path fill="#FCEED4" d="M-599.218,96.616V83.53h2.287v10.801h8.801v2.285H-599.218z"/>
	</g>
</g>
<g>
	<g>
		<path fill="#FCEED4" d="M-548.503,96.554c-0.912,0-1.754-0.17-2.527-0.512c-0.775-0.344-1.447-0.811-2.018-1.404
			c-0.568-0.594-1.014-1.299-1.332-2.115c-0.316-0.816-0.477-1.697-0.477-2.646c0-0.959,0.16-1.836,0.477-2.627
			c0.318-0.793,0.764-1.469,1.332-2.025c0.57-0.559,1.242-0.99,2.018-1.297c0.773-0.305,1.615-0.459,2.527-0.459h7.094v2.287h-7.094
			c-0.588,0-1.131,0.105-1.629,0.314s-0.926,0.502-1.287,0.873c-0.359,0.371-0.641,0.816-0.846,1.332
			c-0.203,0.516-0.305,1.086-0.305,1.709c0,0.613,0.102,1.184,0.305,1.711c0.205,0.527,0.486,0.98,0.846,1.359
			c0.361,0.377,0.789,0.674,1.287,0.891s1.041,0.324,1.629,0.324h5.6v-3.402h-5.904V88.94h8.207v7.613H-548.503z"/>
		<path fill="#FCEED4" d="M-526.345,96.554l-3.311-3.635h-4.896v-2.018h5.453c0.828,0,1.453-0.225,1.873-0.674
			c0.42-0.451,0.629-1.102,0.629-1.953s-0.219-1.484-0.656-1.898s-1.053-0.621-1.846-0.621h-7.127v10.799h-2.27V83.468h9.396
			c0.744,0,1.41,0.111,1.998,0.334c0.588,0.221,1.086,0.539,1.494,0.953s0.721,0.916,0.936,1.504
			c0.217,0.588,0.324,1.248,0.324,1.979c0,1.094-0.236,2.008-0.711,2.746s-1.137,1.27-1.988,1.594l3.941,3.977H-526.345z"/>
		<path fill="#FCEED4" d="M-516.247,96.554c-0.912,0-1.754-0.17-2.529-0.512c-0.773-0.344-1.445-0.811-2.016-1.404
			s-1.014-1.299-1.332-2.115s-0.477-1.697-0.477-2.646c0-0.959,0.158-1.836,0.477-2.627c0.318-0.793,0.762-1.469,1.332-2.025
			c0.57-0.559,1.242-0.99,2.016-1.297c0.775-0.305,1.617-0.459,2.529-0.459h3.186c0.949,0,1.816,0.156,2.602,0.469
			s1.461,0.75,2.025,1.314c0.564,0.563,1.002,1.238,1.314,2.023c0.311,0.787,0.467,1.654,0.467,2.602
			c0,0.949-0.158,1.83-0.477,2.646s-0.762,1.521-1.332,2.115s-1.244,1.061-2.025,1.404c-0.779,0.342-1.637,0.512-2.574,0.512
			H-516.247z M-513.062,94.269c0.602,0,1.152-0.107,1.656-0.324s0.939-0.514,1.305-0.891c0.367-0.379,0.652-0.832,0.855-1.359
			c0.205-0.527,0.307-1.098,0.307-1.711c0-0.611-0.102-1.178-0.307-1.701c-0.203-0.521-0.488-0.969-0.855-1.34
			c-0.365-0.371-0.801-0.664-1.305-0.873s-1.055-0.314-1.656-0.314h-3.186c-0.588,0-1.131,0.105-1.629,0.314
			s-0.926,0.502-1.287,0.873c-0.359,0.371-0.643,0.816-0.846,1.332s-0.307,1.086-0.307,1.709c0,0.613,0.104,1.184,0.307,1.711
			s0.486,0.98,0.846,1.359c0.361,0.377,0.789,0.674,1.287,0.891s1.041,0.324,1.629,0.324H-513.062z"/>
		<path fill="#FCEED4" d="M-493.099,83.468h2.232v7.309c0,1.008-0.133,1.887-0.396,2.637s-0.678,1.371-1.242,1.863
			s-1.293,0.857-2.188,1.098s-1.977,0.359-3.248,0.359c-1.26,0-2.338-0.119-3.23-0.359c-0.895-0.24-1.625-0.605-2.188-1.098
			c-0.564-0.492-0.979-1.113-1.242-1.863s-0.396-1.629-0.396-2.637v-7.309h2.357v7.309c0,0.66,0.082,1.225,0.244,1.691
			c0.162,0.469,0.426,0.854,0.791,1.152c0.367,0.301,0.855,0.52,1.467,0.656c0.613,0.139,1.369,0.207,2.27,0.207
			c0.898,0,1.656-0.068,2.268-0.207c0.611-0.137,1.1-0.355,1.467-0.656c0.365-0.299,0.631-0.684,0.791-1.152
			c0.162-0.467,0.244-1.031,0.244-1.691V83.468z"/>
		<path fill="#FCEED4" d="M-484.854,92.919v-2.215h5.256c0.803,0,1.432-0.229,1.881-0.684c0.449-0.457,0.676-1.057,0.676-1.801
			c0-0.756-0.227-1.355-0.676-1.799c-0.449-0.445-1.078-0.666-1.881-0.666h-6.93v10.799h-2.27V83.468h9.199
			c0.756,0,1.432,0.111,2.025,0.334c0.594,0.221,1.094,0.533,1.502,0.936s0.721,0.891,0.936,1.467
			c0.217,0.576,0.324,1.225,0.324,1.943c0,0.709-0.107,1.354-0.324,1.936c-0.215,0.582-0.527,1.084-0.936,1.504
			s-0.908,0.746-1.502,0.98s-1.27,0.352-2.025,0.352H-484.854z"/>
		<path fill="#FCEED4" d="M-473.19,96.554v-2.285h9.809c0.613,0,1.084-0.156,1.414-0.469c0.33-0.311,0.494-0.725,0.494-1.242
			c0-0.563-0.164-0.986-0.494-1.268c-0.33-0.283-0.801-0.424-1.414-0.424h-6.012c-0.611,0-1.166-0.094-1.664-0.279
			s-0.918-0.443-1.26-0.773s-0.607-0.723-0.793-1.18c-0.186-0.455-0.279-0.953-0.279-1.494c0-0.527,0.088-1.016,0.262-1.467
			c0.174-0.449,0.432-0.836,0.773-1.16s0.766-0.58,1.27-0.766s1.08-0.279,1.729-0.279h9.395v2.287h-9.395
			c-0.529,0-0.936,0.141-1.225,0.422c-0.287,0.283-0.432,0.676-0.432,1.18s0.146,0.895,0.441,1.17
			c0.293,0.275,0.691,0.414,1.197,0.414h5.992c1.332,0,2.344,0.313,3.033,0.936c0.691,0.625,1.035,1.572,1.035,2.844
			c0,0.553-0.084,1.063-0.252,1.531c-0.168,0.467-0.42,0.873-0.756,1.215s-0.758,0.609-1.27,0.801
			c-0.51,0.191-1.105,0.287-1.791,0.287H-473.19z"/>
	</g>
</g>
<g>
	<g>
		<g>
			<g>
				<path fill="#FCEED4" d="M-285.518,0.018c0,0,2.195,10.771,12.241,15.568l-7.956,4.803
					C-281.232,20.389-288.414,14.406-285.518,0.018z"/>
				<path fill="#FCEED4" d="M-303.392,17.85c0,0,10.747,2.897,15.118,13.136l5.002-8.282
					C-283.271,22.703-288.895,15.561-303.392,17.85z"/>
			</g>
			<g>
				<path fill="#FCEED4" d="M-241.803,0.002c0,0-2.373,10.876-12.387,15.737l7.926,4.649
					C-246.264,20.389-238.814,14.372-241.803,0.002z"/>
				<path fill="#FCEED4" d="M-224.065,18.245c0,0-10.81,2.656-15.409,12.795l-5.078-8.16
					C-244.553,22.88-238.508,15.633-224.065,18.245z"/>
			</g>
			<g>
				<path fill="#FCEED4" d="M-303.453,63.34c0,0,10.6-2.221,15.189-12.361l4.9,8.053C-283.363,59.031-289.008,65.941-303.453,63.34z
					"/>
				<path fill="#FCEED4" d="M-285.438,81.652c0,0,1.869-10.627,11.879-15.498l-7.359-4.768
					C-280.918,61.387-288.438,67.285-285.438,81.652z"/>
			</g>
			<g>
				<path fill="#FCEED4" d="M-241.953,81.652c0,0-2.215-10.58-12.365-15.148l7.209-5.117
					C-247.109,61.387-239.383,67.201-241.953,81.652z"/>
				<path fill="#FCEED4" d="M-224.675,63.494c0,0-10.435-2.26-14.763-12.516l-4.779,7.57
					C-244.217,58.549-239.184,65.725-224.675,63.494z"/>
			</g>
		</g>
	</g>
	<path fill="#CFBA86" d="M-263.836,17.444h0.002c-0.16,0-0.318-0.014-0.477-0.023C-264.15,17.426-263.996,17.444-263.836,17.444z"/>
	<path fill="#56140F" d="M-263.834,17.444c0.264,0,0.523-0.013,0.779-0.039C-263.314,17.419-263.572,17.444-263.834,17.444
		L-263.834,17.444z"/>
	<path fill="#56140F" d="M-264.311,17.421c-0.102-0.004-0.201-0.011-0.303-0.016C-264.514,17.415-264.41,17.414-264.311,17.421z"/>
	<path fill="#56140F" d="M-241.475,41.345c0.004,0.263,0.02,0.523,0.049,0.779C-241.443,41.864-241.471,41.606-241.475,41.345
		L-241.475,41.345z"/>
	<path fill="#56140F" d="M-263.92,65.035c-0.264,0-0.524,0.014-0.781,0.041C-264.441,65.063-264.184,65.035-263.92,65.035
		L-263.92,65.035z"/>
	<path fill="#56140F" d="M-286.221,40.061c0.02,0.26,0.052,0.517,0.059,0.779c0,0,0,0,0-0.001
		C-286.169,40.576-286.189,40.316-286.221,40.061z"/>
	<g>
		<path fill="#FAEFDE" d="M-250.045,27.503h-2.438c0,0-2.658,1.107-3.986,5.834c0,0-2.217,7.68-2.955,8.418
			c0,0-2.4,2.585-4.412-0.295v-6.793c0,0-0.757-5.761-5.113-6.499l-3.471,0.073c0,0-4.209,0.813-6.129,4.063l3.322,4.061
			c0,0,5.244-7.089,8.566-4.726c0,0,1.92,1.772,0.738,4.726c0,0-0.295,5.613-7.975,6.499l2.289,5.169c0,0,3.84-1.33,4.947-2.142
			c0,0,4.756,4.356,1.123,9.674c0,0-1.898,4.578-7.492,0.518c0,0-3.969-4.21-4.855-7.755c0,0-1.351-3.102-1.709-3.396
			c0,0-0.58-0.813-1.318-1.107c0,0-0.074,1.402,0.295,2.067c0,0,3.324,8.861,5.244,10.93c0,0,2.658,5.279,8.787,5.334
			c0,0,5.686-0.461,6.646-6.221v-3.987c0,0-0.969-5.042-5.834-7.459c0,0,1.033-0.59,1.551-1.92c0,0,1.625,3.914,5.611,4.505
			c0,0,1.92-0.517,3.102-1.847c0,0,0.074,8.345,3.545,9.306l2.512,0.221c0,0,4.234-2.048,4.9-8.794v-6.451
			C-244.553,39.507-245.982,29.792-250.045,27.503z M-250.723,48.883c-2.301-0.376-3.645-2.694-3.645-6.242
			c0-2.165,1.244-5.944,3.645-11.059c2.311,0,4.188,3.872,4.188,8.649C-246.535,42.825-248.885,49.184-250.723,48.883z"/>
		<path fill="#F9F1DF" d="M-262.156,30.384h2.955c2.732-0.591,4.578-3.988,4.578-3.988l-2.438-3.692
			c-5.76,9.231-11.076,1.034-11.076,1.034l-0.887,0.643C-266.365,29.011-262.156,30.384-262.156,30.384z"/>
		<polygon fill="#F9F1DF" points="-259.719,22.261 -262.303,19.75 -265.035,22.703 -261.824,24.993 		"/>
	</g>
	<path fill="none" d="M-263.836-6.896c-2.19,11.339-7.615,10.164-7.615,16.723c0,1.932,0.722,3.693,1.906,5.036
		c1.769-0.396,3.602-0.611,5.484-0.611c2.018,0,3.977,0.247,5.861,0.7c1.23-1.353,1.98-3.15,1.98-5.125
		C-256.219,4.001-262.377,2.451-263.836-6.896z"/>
	<path fill="none" d="M-310.494,41.438c11.39,1.91,10.348,7.365,16.904,7.203c1.686-0.041,3.223-0.634,4.461-1.592
		c-0.453-1.978-0.699-4.038-0.699-6.159c0-2.039,0.229-4.021,0.648-5.929c-1.328-1.008-2.99-1.593-4.785-1.549
		C-299.789,33.556-301.188,39.751-310.494,41.438z"/>
	<path fill="none" d="M-238.961,46.917c1.369,1.238,3.189,1.986,5.18,1.965c5.826-0.059,7.314-6.232,16.646-7.787
		c-11.362-2.074-10.243-7.514-16.802-7.445c-1.867,0.019-3.57,0.712-4.885,1.844c0.348,1.742,0.531,3.548,0.531,5.397
		C-238.291,42.964-238.527,44.979-238.961,46.917z"/>
	<path fill="none" d="M-271.521,72.666c0.01,5.826,6.17,7.365,7.646,16.709c2.17-11.344,7.6-10.18,7.586-16.738
		c-0.004-2.252-0.99-4.266-2.547-5.658c-1.688,0.359-3.434,0.549-5.225,0.549c-1.703,0-3.365-0.176-4.977-0.502
		C-270.566,68.422-271.525,70.432-271.521,72.666z"/>
	<path fill="#FCEED4" d="M-271.451,9.827c0-6.559,5.425-5.384,7.615-16.723c1.459,9.347,7.617,10.896,7.617,16.723
		c0,1.975-0.75,3.772-1.98,5.125c0.576,0.139,1.146,0.292,1.707,0.47c1.047-0.616,2.014-1.354,2.867-2.207
		c2.609-2.62,4.23-6.221,4.23-10.21c0-12.4-11.871-14.03-14.441-30.86c-2.569,16.83-14.439,18.46-14.439,30.86
		c0,3.989,1.62,7.59,4.23,10.21c0.813,0.813,1.732,1.519,2.723,2.117c0.584-0.177,1.177-0.334,1.777-0.469
		C-270.729,13.521-271.451,11.759-271.451,9.827z"/>
	<path fill="#FCEED4" d="M-227.184,26.756c-3.99,0.041-7.572,1.698-10.166,4.335c-0.734,0.749-1.377,1.586-1.936,2.481
		c0.176,0.632,0.334,1.271,0.463,1.921c1.314-1.132,3.018-1.825,4.885-1.844c6.559-0.068,5.439,5.371,16.802,7.445
		c-9.331,1.555-10.819,7.729-16.646,7.787c-1.99,0.021-3.811-0.727-5.18-1.965c-0.131,0.578-0.273,1.15-0.439,1.713
		c0.633,1.055,1.389,2.025,2.26,2.879c2.646,2.583,6.264,4.167,10.254,4.126c12.399-0.127,13.907-12.013,30.71-14.755
		C-213.032,38.481-214.784,26.629-227.184,26.756z"/>
	<path fill="#FCEED4" d="M-256.289,72.637c0.014,6.559-5.416,5.395-7.586,16.738c-1.477-9.344-7.637-10.883-7.646-16.709
		c-0.004-2.234,0.955-4.244,2.484-5.641c-0.506-0.102-1.006-0.215-1.5-0.348c-1.328,0.686-2.541,1.561-3.584,2.607
		c-2.605,2.623-4.219,6.227-4.213,10.217c0.023,12.4,11.896,14.008,14.498,30.832c2.539-16.834,14.406-18.486,14.383-30.885
		c-0.008-3.99-1.635-7.588-4.248-10.201c-1.064-1.063-2.301-1.947-3.656-2.637c-0.488,0.137-0.98,0.262-1.479,0.367
		C-257.279,68.371-256.293,70.385-256.289,72.637z"/>
	<path fill="#FDF1D6" d="M-293.59,48.642c-6.557,0.162-5.515-5.293-16.904-7.203c9.307-1.688,10.705-7.883,16.529-8.025
		c1.795-0.044,3.457,0.541,4.785,1.549c0.142-0.645,0.301-1.283,0.486-1.909c-0.571-0.838-1.219-1.619-1.949-2.315
		c-2.684-2.545-6.321-4.076-10.311-3.979c-12.396,0.305-13.734,12.212-30.495,15.195c16.888,2.154,18.81,13.981,31.205,13.677
		c3.989-0.098,7.548-1.807,10.103-4.479c0.586-0.615,1.111-1.288,1.582-2c-0.217-0.688-0.406-1.389-0.57-2.102
		C-290.367,48.008-291.904,48.601-293.59,48.642z"/>
	<g>
		<g>
			<path fill="#FDF1D6" d="M-263.92,14.202c14.23,0,25.77,11.926,25.77,26.639c0,14.711-11.539,26.636-25.77,26.636
				c-14.232,0-25.769-11.925-25.769-26.636C-289.688,26.128-278.152,14.202-263.92,14.202 M-263.92,13.202
				c-14.76,0-26.769,12.398-26.769,27.639c0,15.238,12.009,27.636,26.769,27.636c14.761,0,26.77-12.397,26.77-27.636
				C-237.15,25.601-249.159,13.202-263.92,13.202L-263.92,13.202z"/>
		</g>
	</g>
</g>
<g>
	<g>
		<path fill="#FCEED4" d="M-359.599,80.773V67.633h2.285v13.141H-359.599z M-349.069,80.773v-5.688h-6.588v-2.035h6.588v-5.418
			h2.287v13.141H-349.069z"/>
		<path fill="#FCEED4" d="M-338.538,80.719c-0.912,0-1.756-0.17-2.529-0.513c-0.775-0.342-1.447-0.81-2.016-1.403
			c-0.57-0.595-1.016-1.299-1.332-2.115c-0.318-0.816-0.479-1.698-0.479-2.646c0-0.959,0.16-1.836,0.479-2.628
			c0.316-0.792,0.762-1.467,1.332-2.024c0.568-0.559,1.24-0.99,2.016-1.297c0.773-0.306,1.617-0.459,2.529-0.459h3.186
			c0.947,0,1.814,0.156,2.602,0.469c0.785,0.313,1.459,0.75,2.023,1.313c0.564,0.564,1.002,1.239,1.314,2.025
			s0.469,1.653,0.469,2.601c0,0.948-0.16,1.83-0.479,2.646c-0.316,0.816-0.762,1.521-1.332,2.115
			c-0.568,0.594-1.244,1.062-2.023,1.403c-0.781,0.343-1.639,0.513-2.574,0.513H-338.538z M-335.353,78.434
			c0.6,0,1.152-0.108,1.656-0.324c0.504-0.217,0.938-0.514,1.305-0.891c0.365-0.379,0.65-0.832,0.855-1.359
			c0.203-0.527,0.305-1.098,0.305-1.71s-0.102-1.179-0.305-1.701c-0.205-0.522-0.49-0.969-0.855-1.341
			c-0.367-0.372-0.801-0.663-1.305-0.873s-1.057-0.314-1.656-0.314h-3.186c-0.59,0-1.133,0.104-1.629,0.314
			c-0.5,0.21-0.928,0.501-1.287,0.873c-0.361,0.372-0.643,0.816-0.848,1.332c-0.203,0.516-0.305,1.086-0.305,1.71
			c0,0.612,0.102,1.183,0.305,1.71c0.205,0.527,0.486,0.98,0.848,1.359c0.359,0.377,0.787,0.674,1.287,0.891
			c0.496,0.216,1.039,0.324,1.629,0.324H-335.353z"/>
		<path fill="#FCEED4" d="M-323.202,80.719V69.92h-4.969v-2.287h12.223v2.287h-4.969v10.799H-323.202z"/>
		<path fill="#FCEED4" d="M-314.438,80.719V67.633h11.684v2.287h-9.414v8.514h9.432v2.285H-314.438z M-310.495,75.031v-1.926h7.254
			v1.926H-310.495z"/>
		<path fill="#FCEED4" d="M-300.776,80.719V67.633h2.287v10.801h8.801v2.285H-300.776z"/>
	</g>
</g>
<g>
	<g>
		<path fill="#FCEED4" d="M-230.607,80.773c-0.912,0-1.754-0.171-2.527-0.513c-0.775-0.343-1.447-0.811-2.018-1.404
			c-0.568-0.594-1.014-1.299-1.332-2.115c-0.316-0.815-0.477-1.697-0.477-2.646c0-0.96,0.16-1.836,0.477-2.628
			c0.318-0.792,0.764-1.468,1.332-2.025c0.57-0.558,1.242-0.99,2.018-1.296c0.773-0.306,1.615-0.459,2.527-0.459h7.094v2.286h-7.094
			c-0.588,0-1.131,0.105-1.629,0.314c-0.498,0.21-0.926,0.502-1.287,0.873c-0.359,0.372-0.641,0.816-0.846,1.332
			c-0.203,0.517-0.305,1.087-0.305,1.71c0,0.612,0.102,1.183,0.305,1.71c0.205,0.528,0.486,0.981,0.846,1.359
			c0.361,0.378,0.789,0.675,1.287,0.891c0.498,0.217,1.041,0.324,1.629,0.324h5.6v-3.402h-5.904v-1.926h8.207v7.614H-230.607z"/>
		<path fill="#FCEED4" d="M-208.449,80.773l-3.311-3.636h-4.896v-2.017h5.453c0.828,0,1.453-0.225,1.873-0.675
			s0.629-1.101,0.629-1.953c0-0.852-0.219-1.484-0.656-1.898s-1.053-0.621-1.846-0.621h-7.127v10.8h-2.27V67.688h9.396
			c0.744,0,1.41,0.111,1.998,0.333s1.086,0.54,1.494,0.954s0.721,0.915,0.936,1.503c0.217,0.588,0.324,1.248,0.324,1.979
			c0,1.093-0.236,2.008-0.711,2.745c-0.475,0.738-1.137,1.27-1.988,1.594l3.941,3.978H-208.449z"/>
		<path fill="#FCEED4" d="M-198.352,80.773c-0.912,0-1.754-0.171-2.529-0.513c-0.773-0.343-1.445-0.811-2.016-1.404
			s-1.014-1.299-1.332-2.115c-0.318-0.815-0.477-1.697-0.477-2.646c0-0.96,0.158-1.836,0.477-2.628s0.762-1.468,1.332-2.025
			s1.242-0.99,2.016-1.296c0.775-0.306,1.617-0.459,2.529-0.459h3.186c0.949,0,1.816,0.156,2.602,0.468
			c0.785,0.313,1.461,0.75,2.025,1.314c0.564,0.563,1.002,1.239,1.314,2.024c0.311,0.786,0.467,1.653,0.467,2.602
			s-0.158,1.83-0.477,2.646c-0.318,0.816-0.762,1.521-1.332,2.115s-1.244,1.062-2.025,1.404c-0.779,0.342-1.637,0.513-2.574,0.513
			H-198.352z M-195.166,78.487c0.602,0,1.152-0.107,1.656-0.324c0.504-0.216,0.939-0.513,1.305-0.891
			c0.367-0.378,0.652-0.831,0.855-1.359c0.205-0.527,0.307-1.098,0.307-1.71c0-0.611-0.102-1.179-0.307-1.701
			c-0.203-0.521-0.488-0.969-0.855-1.341c-0.365-0.371-0.801-0.663-1.305-0.873c-0.504-0.209-1.055-0.314-1.656-0.314h-3.186
			c-0.588,0-1.131,0.105-1.629,0.314c-0.498,0.21-0.926,0.502-1.287,0.873c-0.359,0.372-0.643,0.816-0.846,1.332
			c-0.203,0.517-0.307,1.087-0.307,1.71c0,0.612,0.104,1.183,0.307,1.71c0.203,0.528,0.486,0.981,0.846,1.359
			c0.361,0.378,0.789,0.675,1.287,0.891c0.498,0.217,1.041,0.324,1.629,0.324H-195.166z"/>
		<path fill="#FCEED4" d="M-175.203,67.688h2.232v7.308c0,1.009-0.133,1.888-0.396,2.638s-0.678,1.371-1.242,1.862
			c-0.564,0.492-1.293,0.858-2.188,1.099c-0.895,0.239-1.977,0.359-3.248,0.359c-1.26,0-2.338-0.12-3.23-0.359
			c-0.895-0.24-1.625-0.606-2.188-1.099c-0.564-0.491-0.979-1.112-1.242-1.862s-0.396-1.629-0.396-2.638v-7.308h2.357v7.308
			c0,0.66,0.082,1.225,0.244,1.692s0.426,0.853,0.791,1.152c0.367,0.3,0.855,0.519,1.467,0.656c0.613,0.139,1.369,0.207,2.27,0.207
			c0.898,0,1.656-0.068,2.268-0.207c0.611-0.138,1.1-0.356,1.467-0.656c0.365-0.3,0.631-0.685,0.791-1.152
			c0.162-0.468,0.244-1.032,0.244-1.692V67.688z"/>
		<path fill="#FCEED4" d="M-166.959,77.138v-2.214h5.256c0.803,0,1.432-0.229,1.881-0.685s0.676-1.056,0.676-1.8
			c0-0.756-0.227-1.355-0.676-1.8s-1.078-0.666-1.881-0.666h-6.93v10.8h-2.27V67.688h9.199c0.756,0,1.432,0.111,2.025,0.333
			s1.094,0.534,1.502,0.936c0.408,0.402,0.721,0.892,0.936,1.468c0.217,0.575,0.324,1.224,0.324,1.943
			c0,0.708-0.107,1.354-0.324,1.936c-0.215,0.582-0.527,1.083-0.936,1.503s-0.908,0.747-1.502,0.98
			c-0.594,0.234-1.27,0.352-2.025,0.352H-166.959z"/>
		<path fill="#FCEED4" d="M-155.295,80.773v-2.286h9.809c0.613,0,1.084-0.155,1.414-0.468c0.33-0.312,0.494-0.726,0.494-1.242
			c0-0.563-0.164-0.986-0.494-1.269s-0.801-0.424-1.414-0.424h-6.012c-0.611,0-1.166-0.093-1.664-0.278
			c-0.498-0.187-0.918-0.444-1.26-0.774s-0.607-0.723-0.793-1.179s-0.279-0.954-0.279-1.494c0-0.528,0.088-1.017,0.262-1.467
			s0.432-0.837,0.773-1.161s0.766-0.579,1.27-0.765c0.504-0.187,1.08-0.279,1.729-0.279h9.395v2.286h-9.395
			c-0.529,0-0.936,0.141-1.225,0.423c-0.287,0.282-0.432,0.675-0.432,1.179s0.146,0.895,0.441,1.17
			c0.293,0.276,0.691,0.414,1.197,0.414h5.992c1.332,0,2.344,0.313,3.033,0.937c0.691,0.624,1.035,1.572,1.035,2.844
			c0,0.552-0.084,1.062-0.252,1.53c-0.168,0.468-0.42,0.873-0.756,1.215s-0.758,0.609-1.27,0.801
			c-0.51,0.192-1.105,0.288-1.791,0.288H-155.295z"/>
	</g>
</g>
<g>
	<g>
		<g>
			<g>
				<path fill="#FFFFFF" d="M34.499,15.719c0,0,1.105,5.431,6.171,7.848l-4.011,2.423C36.659,25.989,33.039,22.973,34.499,15.719z"
					/>
				<path fill="#FFFFFF" d="M25.489,24.708c0,0,5.417,1.461,7.62,6.623l2.522-4.176C35.632,27.155,32.797,23.554,25.489,24.708z"/>
			</g>
			<g>
				<path fill="#FFFFFF" d="M56.535,15.712c0,0-1.193,5.482-6.242,7.933l3.994,2.345C54.287,25.989,58.045,22.956,56.535,15.712z"/>
				<path fill="#FFFFFF" d="M65.478,24.908c0,0-5.448,1.339-7.767,6.449l-2.559-4.113C55.152,27.244,58.197,23.592,65.478,24.908z"
					/>
			</g>
			<g>
				<path fill="#FFFFFF" d="M25.459,47.64c0,0,5.343-1.119,7.656-6.229l2.471,4.057C35.586,45.468,32.738,48.95,25.459,47.64z"/>
				<path fill="#FFFFFF" d="M34.54,56.87c0,0,0.943-5.357,5.987-7.813l-3.71-2.402C36.817,46.655,33.027,49.63,34.54,56.87z"/>
			</g>
			<g>
				<path fill="#FFFFFF" d="M56.457,56.87c0,0-1.111-5.332-6.23-7.635l3.633-2.58C53.859,46.655,57.757,49.587,56.457,56.87z"/>
				<path fill="#FFFFFF" d="M65.171,47.718c0,0-5.263-1.141-7.445-6.307l-2.407,3.813C55.318,45.224,57.855,48.845,65.171,47.718z"
					/>
			</g>
		</g>
	</g>
	<path fill="#CFBA86" d="M45.428,24.504h0.004c-0.084,0-0.16-0.006-0.24-0.012C45.271,24.494,45.348,24.504,45.428,24.504z"/>
	<path fill="#56140F" d="M45.432,24.504c0.13,0,0.264-0.006,0.39-0.021C45.691,24.492,45.562,24.504,45.432,24.504L45.432,24.504z"
		/>
	<path fill="#56140F" d="M45.191,24.492c-0.054-0.001-0.104-0.005-0.152-0.009C45.088,24.489,45.138,24.489,45.191,24.492z"/>
	<path fill="#56140F" d="M56.702,36.552c0,0.133,0.011,0.266,0.022,0.393C56.717,36.815,56.702,36.685,56.702,36.552L56.702,36.552z
		"/>
	<path fill="#56140F" d="M45.389,48.495c-0.134,0-0.268,0.006-0.396,0.02C45.123,48.511,45.255,48.495,45.389,48.495L45.389,48.495z
		"/>
	<path fill="#56140F" d="M34.143,35.905c0.013,0.129,0.029,0.262,0.031,0.395l0,0C34.172,36.167,34.161,36.034,34.143,35.905z"/>
	<g>
		<path fill="#FFFFFF" d="M52.381,29.574h-1.226c0,0-1.342,0.559-2.014,2.94c0,0-1.117,3.871-1.488,4.244
			c0,0-1.211,1.305-2.226-0.15v-3.422c0,0-0.381-2.904-2.573-3.274L41.1,29.947c0,0-2.12,0.409-3.088,2.046l1.674,2.048
			c0,0,2.646-3.574,4.321-2.381c0,0,0.968,0.894,0.369,2.381c0,0-0.146,2.831-4.021,3.276l1.157,2.604c0,0,1.934-0.67,2.495-1.078
			c0,0,2.395,2.197,0.564,4.877c0,0-0.96,2.307-3.778,0.262c0,0-1.997-2.123-2.445-3.912c0,0-0.68-1.561-0.861-1.709
			c0,0-0.294-0.408-0.667-0.559c0,0-0.035,0.707,0.15,1.041c0,0,1.676,4.469,2.644,5.51c0,0,1.341,2.662,4.431,2.689
			c0,0,2.864-0.23,3.35-3.135v-2.012c0,0-0.487-2.541-2.939-3.76c0,0,0.521-0.297,0.78-0.969c0,0,0.817,1.975,2.831,2.273
			c0,0,0.966-0.262,1.561-0.932c0,0,0.037,4.205,1.789,4.691l1.262,0.111c0,0,2.138-1.035,2.476-4.434v-3.252
			C55.152,35.626,54.432,30.728,52.381,29.574z M52.039,40.353c-1.159-0.191-1.837-1.361-1.837-3.15
			c0-1.088,0.628-2.994,1.837-5.572c1.167,0,2.112,1.954,2.112,4.359C54.151,37.298,52.963,40.503,52.039,40.353z"/>
		<path fill="#FFFFFF" d="M46.276,31.027h1.49c1.375-0.297,2.306-2.01,2.306-2.01l-1.227-1.862
			c-2.905,4.653-5.584,0.521-5.584,0.521l-0.446,0.324C44.155,30.334,46.276,31.027,46.276,31.027z"/>
		<polygon fill="#FFFFFF" points="47.503,26.932 46.202,25.667 44.824,27.155 46.442,28.31 		"/>
	</g>
	<path fill="none" d="M45.428,12.234c-1.104,5.718-3.836,5.125-3.836,8.432c0,0.973,0.362,1.86,0.96,2.537
		c0.892-0.201,1.815-0.309,2.765-0.309c1.016,0,2.004,0.124,2.955,0.353c0.621-0.683,0.996-1.587,0.996-2.581
		C49.268,17.728,46.165,16.947,45.428,12.234z"/>
	<path fill="none" d="M21.909,36.601c5.742,0.961,5.215,3.711,8.521,3.627c0.851-0.02,1.627-0.318,2.248-0.801
		c-0.227-0.994-0.354-2.031-0.354-3.104c0-1.027,0.117-2.027,0.327-2.988c-0.667-0.508-1.507-0.803-2.413-0.781
		C27.304,32.626,26.6,35.749,21.909,36.601z"/>
	<path fill="none" d="M57.967,39.362c0.691,0.623,1.609,1,2.612,0.988c2.937-0.029,3.688-3.139,8.392-3.926
		c-5.729-1.047-5.165-3.787-8.472-3.751c-0.941,0.011-1.798,0.357-2.463,0.93c0.178,0.875,0.271,1.788,0.271,2.72
		C58.307,37.368,58.187,38.384,57.967,39.362z"/>
	<path fill="none" d="M41.555,52.341c0.007,2.938,3.111,3.713,3.853,8.424c1.096-5.719,3.836-5.133,3.827-8.439
		c-0.002-1.135-0.5-2.15-1.284-2.852c-0.851,0.182-1.731,0.275-2.634,0.275c-0.858,0-1.696-0.088-2.508-0.252
		C42.037,50.202,41.555,51.214,41.555,52.341z"/>
	<path fill="#FFFFFF" d="M41.592,20.666c0-3.307,2.732-2.714,3.836-8.432c0.737,4.713,3.84,5.493,3.84,8.432
		c0,0.994-0.375,1.898-0.996,2.581c0.29,0.071,0.576,0.147,0.86,0.238c0.527-0.31,1.013-0.683,1.445-1.113
		c1.313-1.32,2.131-3.137,2.131-5.146c0-6.251-5.981-7.074-7.28-15.557c-1.293,8.482-7.276,9.306-7.276,15.557
		c0,2.01,0.815,3.826,2.131,5.146c0.412,0.41,0.875,0.766,1.374,1.067c0.292-0.088,0.593-0.168,0.896-0.236
		C41.954,22.526,41.592,21.639,41.592,20.666z"/>
	<path fill="#FFFFFF" d="M63.906,29.198c-2.014,0.019-3.817,0.856-5.127,2.186c-0.368,0.377-0.693,0.799-0.978,1.252
		c0.093,0.317,0.173,0.638,0.234,0.968c0.665-0.572,1.521-0.919,2.463-0.93c3.307-0.036,2.742,2.704,8.472,3.751
		c-4.704,0.787-5.455,3.896-8.392,3.926c-1.003,0.012-1.921-0.365-2.612-0.988c-0.064,0.289-0.137,0.58-0.221,0.861
		c0.321,0.533,0.7,1.021,1.139,1.453c1.334,1.301,3.16,2.098,5.17,2.078c6.251-0.064,7.013-6.057,15.48-7.436
		C71.038,35.106,70.155,29.136,63.906,29.198z"/>
	<path fill="#FFFFFF" d="M49.234,52.325c0.009,3.307-2.731,2.721-3.827,8.439c-0.741-4.711-3.846-5.486-3.853-8.424
		c0-1.127,0.482-2.139,1.254-2.844c-0.257-0.051-0.506-0.107-0.758-0.174c-0.671,0.346-1.28,0.787-1.808,1.313
		c-1.312,1.322-2.127,3.141-2.122,5.15c0.01,6.254,5.995,7.061,7.307,15.545c1.28-8.488,7.264-9.322,7.249-15.568
		c-0.002-2.014-0.821-3.826-2.141-5.145c-0.533-0.535-1.157-0.982-1.841-1.328c-0.247,0.068-0.494,0.133-0.745,0.184
		C48.734,50.175,49.232,51.19,49.234,52.325z"/>
	<path fill="#FFFFFF" d="M30.431,40.228c-3.307,0.084-2.779-2.666-8.521-3.627c4.69-0.852,5.395-3.975,8.33-4.047
		c0.906-0.021,1.746,0.273,2.413,0.781c0.074-0.325,0.154-0.648,0.247-0.962c-0.29-0.423-0.615-0.818-0.984-1.168
		c-1.351-1.281-3.185-2.055-5.194-2.007c-6.251,0.155-6.929,6.158-15.374,7.66c8.512,1.088,9.481,7.049,15.73,6.896
		c2.011-0.051,3.805-0.912,5.091-2.26c0.297-0.309,0.561-0.648,0.797-1.01c-0.108-0.344-0.201-0.697-0.286-1.059
		C32.058,39.909,31.281,40.208,30.431,40.228z"/>
	<g>
		<g>
			<path fill="#FFFFFF" d="M45.389,22.871c7.173,0,12.987,6.011,12.987,13.429c0,7.414-5.814,13.426-12.987,13.426
				c-7.178,0-12.994-6.012-12.994-13.426C32.395,28.882,38.211,22.871,45.389,22.871 M45.389,21.871
				c-7.717,0-13.994,6.473-13.994,14.429c0,7.954,6.277,14.426,13.994,14.426c7.713,0,13.987-6.472,13.987-14.426
				C59.376,28.344,53.102,21.871,45.389,21.871L45.389,21.871z"/>
		</g>
	</g>
	<g>
		<g>
			<path fill="#FFFFFF" d="M9.103,59.509c-0.101,0.018-0.206,0.068-0.311,0.145c-0.202,0.16-0.303,0.4-0.303,0.709v5.527
				c0,0.314,0.101,0.551,0.303,0.709c0.104,0.078,0.21,0.129,0.311,0.146H7.009c0.103-0.018,0.206-0.068,0.309-0.146
				c0.093-0.068,0.163-0.152,0.214-0.258c0.066-0.127,0.098-0.279,0.098-0.451v-2.465c-0.039,0.072-0.098,0.133-0.167,0.178
				c-0.093,0.059-0.204,0.088-0.334,0.088H4.1c-0.154,0-0.28,0.059-0.383,0.174c-0.035,0.049-0.068,0.102-0.099,0.158
				c-0.021,0.049-0.035,0.1-0.054,0.158v1.709c0,0.314,0.103,0.551,0.307,0.709c0.104,0.078,0.208,0.129,0.311,0.146H2.086
				c0.105-0.018,0.206-0.068,0.311-0.146c0.206-0.158,0.312-0.395,0.312-0.709v-5.527c0-0.17-0.035-0.32-0.097-0.451
				c-0.056-0.1-0.128-0.184-0.215-0.258c-0.104-0.076-0.205-0.127-0.311-0.145h2.096c-0.103,0.018-0.206,0.068-0.311,0.145
				c-0.204,0.16-0.307,0.4-0.307,0.709v2.807c0.015-0.037,0.03-0.072,0.054-0.107c0.026-0.041,0.062-0.078,0.099-0.109
				c0.099-0.08,0.225-0.121,0.383-0.121h3.028c0.13,0,0.241-0.041,0.334-0.125c0.069-0.066,0.128-0.152,0.167-0.258v-2.086
				c0-0.309-0.104-0.549-0.312-0.709c-0.103-0.076-0.206-0.127-0.309-0.145H9.103z"/>
			<path fill="#FFFFFF" d="M13.63,59.313c0.513,0,0.999,0.1,1.466,0.301c0.451,0.191,0.851,0.465,1.201,0.814
				c0.732,0.748,1.099,1.648,1.099,2.699c0,0.516-0.095,1.008-0.296,1.48c-0.186,0.459-0.455,0.859-0.803,1.215
				c-0.351,0.35-0.75,0.623-1.201,0.814c-0.467,0.201-0.953,0.303-1.466,0.303c-0.511,0-0.996-0.102-1.464-0.303
				c-0.45-0.191-0.854-0.465-1.2-0.814c-0.732-0.748-1.102-1.646-1.102-2.695c0-0.516,0.097-1.012,0.293-1.484
				c0.195-0.453,0.461-0.859,0.809-1.215c0.346-0.35,0.75-0.623,1.2-0.814C12.634,59.413,13.119,59.313,13.63,59.313z M13.63,66.118
				c0.819,0,1.516-0.291,2.101-0.877c0.576-0.586,0.866-1.291,0.866-2.113c0-0.826-0.29-1.529-0.866-2.117
				c-0.585-0.586-1.281-0.879-2.101-0.879c-0.817,0-1.513,0.293-2.092,0.879c-0.582,0.588-0.873,1.291-0.873,2.117
				c0,0.822,0.291,1.527,0.873,2.113C12.117,65.827,12.813,66.118,13.63,66.118z"/>
			<path fill="#FFFFFF" d="M23.838,59.509v1.479c-0.022-0.102-0.065-0.203-0.148-0.309c-0.069-0.092-0.152-0.162-0.255-0.211
				c-0.132-0.068-0.282-0.098-0.455-0.098h-1.758v5.52c0,0.314,0.103,0.551,0.311,0.709c0.103,0.078,0.206,0.129,0.311,0.146h-2.1
				c0.104-0.018,0.208-0.068,0.311-0.146c0.206-0.158,0.312-0.395,0.312-0.709v-5.52h-1.763c-0.173,0-0.325,0.029-0.451,0.098
				c-0.101,0.049-0.189,0.119-0.255,0.211c-0.08,0.105-0.132,0.207-0.146,0.309v-1.479H23.838z"/>
			<path fill="#FFFFFF" d="M30.439,59.509v1.479c-0.011-0.102-0.059-0.203-0.139-0.309c-0.162-0.207-0.397-0.309-0.712-0.309H26.5
				v2.549c0.019-0.035,0.039-0.068,0.07-0.1c0.039-0.049,0.091-0.09,0.15-0.125c0.162-0.098,0.379-0.146,0.645-0.146h1.598
				c0.323,0,0.587-0.105,0.784-0.313c0.095-0.102,0.163-0.203,0.2-0.309c0.039,0.248,0.032,0.496-0.021,0.74
				c-0.048,0.217-0.13,0.387-0.245,0.51c-0.154,0.154-0.362,0.23-0.622,0.23h-1.694c-0.266,0-0.482,0.072-0.645,0.213
				c-0.06,0.049-0.111,0.109-0.15,0.176c-0.031,0.051-0.052,0.105-0.07,0.154v1.932h3.143c0.173,0,0.325-0.029,0.455-0.094
				c0.103-0.053,0.185-0.123,0.255-0.215c0.082-0.105,0.132-0.205,0.148-0.309v1.48h-5.512c0.103-0.018,0.206-0.068,0.309-0.146
				c0.208-0.158,0.311-0.395,0.311-0.709v-5.527c0-0.17-0.032-0.32-0.097-0.451c-0.053-0.1-0.125-0.184-0.214-0.258
				c-0.103-0.076-0.206-0.127-0.309-0.145H30.439z"/>
			<path fill="#FFFFFF" d="M36.232,65.882c0.315,0,0.552-0.102,0.711-0.309c0.076-0.105,0.127-0.205,0.142-0.309v1.48h-5.228
				c0.105-0.018,0.208-0.068,0.311-0.146c0.208-0.158,0.312-0.395,0.312-0.709v-5.527c0-0.17-0.035-0.32-0.097-0.451
				c-0.054-0.1-0.124-0.184-0.215-0.258c-0.103-0.076-0.205-0.127-0.311-0.145h2.117c-0.104,0.018-0.208,0.068-0.312,0.145
				c-0.093,0.074-0.165,0.158-0.214,0.258c-0.062,0.131-0.095,0.281-0.095,0.451v5.52H36.232z"/>
		</g>
	</g>
	<path fill="#FFFFFF" d="M59.659,61.517c0.014-0.016,0.019-0.047,0.024-0.098c0.008-0.063,0.006-0.127-0.006-0.193
		c-0.035-0.189-0.141-0.348-0.31-0.473l-0.021-0.006l-0.017-0.012c-0.021-0.012-0.039-0.021-0.053-0.029
		c-0.046-0.027-0.093-0.053-0.141-0.076c-0.142-0.068-0.29-0.125-0.44-0.168c-0.461-0.141-0.933-0.16-1.419-0.063
		c-0.599,0.082-1.141,0.395-1.62,0.936c-0.517,0.58-0.766,1.229-0.747,1.945c-0.024,0.719,0.22,1.369,0.735,1.951
		c0.476,0.543,1.013,0.857,1.616,0.947c0.483,0.094,0.957,0.078,1.418-0.055c0.15-0.043,0.297-0.094,0.445-0.162
		c0.047-0.025,0.092-0.053,0.138-0.08c0.015-0.006,0.035-0.014,0.054-0.023l0.017-0.014l0.021-0.01
		c0.169-0.109,0.284-0.227,0.352-0.352v-1.49c0-0.139-0.041-0.262-0.121-0.371c-0.062-0.088-0.15-0.162-0.258-0.227
		c-0.128-0.076-0.255-0.123-0.383-0.148h1.563v2.357c0,0.213,0.104,0.418,0.31,0.611h-0.009c-0.006-0.004-0.021-0.008-0.033-0.008
		c-0.014-0.002-0.034-0.004-0.056-0.004c-0.058,0-0.123,0.01-0.195,0.027c-0.212,0.049-0.455,0.164-0.735,0.346l-0.022,0.014
		l-0.026,0.012c-0.024,0.012-0.048,0.027-0.066,0.035c-0.062,0.033-0.125,0.068-0.189,0.098c-0.179,0.086-0.372,0.158-0.57,0.219
		c-0.593,0.17-1.202,0.189-1.828,0.064c-0.771-0.113-1.468-0.523-2.081-1.225c-0.663-0.752-0.98-1.592-0.953-2.514
		c-0.021-0.928,0.3-1.77,0.967-2.52c0.62-0.693,1.316-1.096,2.097-1.203c0.622-0.123,1.233-0.098,1.824,0.08
		c0.195,0.061,0.387,0.131,0.57,0.221c0.063,0.031,0.123,0.063,0.188,0.098c0.019,0.008,0.043,0.02,0.065,0.035l0.026,0.016
		l0.019,0.012c0.299,0.191,0.555,0.316,0.771,0.369c0.067,0.018,0.13,0.023,0.184,0.023c0.014,0,0.032,0,0.047-0.002
		c0.009-0.004,0.015-0.006,0.019-0.01L59.659,61.517z"/>
	<path fill="#FFFFFF" d="M68.187,66.812c0.109,0.055,0.223,0.094,0.344,0.105c0.044,0.008,0.087,0.01,0.126,0.012
		c0.031,0,0.058,0,0.076-0.002h-0.006c-0.113,0.045-0.206,0.074-0.282,0.092c-0.101,0.027-0.202,0.045-0.303,0.059
		c-0.13,0.02-0.251,0.021-0.364,0.014c-0.299-0.02-0.548-0.109-0.76-0.271c-0.258-0.199-0.466-0.561-0.616-1.076
		c-0.056-0.275-0.203-0.596-0.435-0.963c-0.266-0.42-0.642-0.787-1.124-1.096c0.344,0.053,0.641,0.035,0.892-0.055
		c0.258-0.092,0.501-0.275,0.733-0.545c0.251-0.289,0.374-0.646,0.374-1.078c0-0.637-0.242-1.086-0.727-1.355
		c-0.16-0.086-0.338-0.146-0.531-0.182c-0.069-0.016-0.138-0.025-0.201-0.029c-0.025,0-0.05,0-0.068-0.006h-0.028h-1.627
		c0,0.018,0,1.893,0,5.627c0,0.314,0.105,0.551,0.307,0.711c0.104,0.076,0.206,0.127,0.309,0.145h-2.096
		c0.105-0.018,0.21-0.068,0.313-0.145c0.086-0.072,0.16-0.158,0.21-0.258c0.065-0.131,0.099-0.283,0.099-0.453v-5.525
		c0-0.314-0.104-0.551-0.309-0.707c-0.104-0.082-0.208-0.129-0.313-0.146h3.089c0.23,0,0.463,0.037,0.704,0.105
		c0.282,0.084,0.541,0.205,0.764,0.369c0.574,0.418,0.856,1.035,0.856,1.85c0,0.416-0.107,0.822-0.327,1.223
		c-0.239,0.447-0.546,0.729-0.91,0.848c0.299,0.199,0.558,0.557,0.784,1.072c0.07,0.164,0.107,0.246,0.107,0.246
		s0.072,0.197,0.222,0.588C67.618,66.376,67.859,66.649,68.187,66.812z"/>
	<path fill="#FFFFFF" d="M73.349,59.481c0.509,0,0.998,0.1,1.466,0.303c0.449,0.191,0.848,0.465,1.196,0.814
		c0.737,0.748,1.104,1.648,1.104,2.699c0,0.514-0.099,1.008-0.297,1.479c-0.189,0.459-0.457,0.863-0.807,1.217
		c-0.349,0.35-0.747,0.621-1.196,0.814c-0.468,0.199-0.957,0.299-1.466,0.299c-0.511,0-0.997-0.1-1.464-0.299
		c-0.455-0.193-0.854-0.465-1.203-0.814c-0.734-0.75-1.104-1.646-1.104-2.695c0-0.516,0.1-1.012,0.297-1.482
		c0.193-0.459,0.461-0.859,0.807-1.217c0.349-0.35,0.748-0.623,1.203-0.814C72.352,59.581,72.838,59.481,73.349,59.481z
		 M73.349,66.288c0.817,0,1.515-0.291,2.098-0.877c0.579-0.586,0.867-1.291,0.867-2.113c0-0.828-0.288-1.533-0.867-2.117
		c-0.583-0.586-1.28-0.879-2.098-0.879s-1.514,0.293-2.094,0.879c-0.581,0.584-0.871,1.289-0.871,2.117
		c0,0.822,0.29,1.527,0.871,2.113C71.835,65.997,72.531,66.288,73.349,66.288z"/>
	<path fill="#FFFFFF" d="M84.489,60.532c0-0.17-0.033-0.322-0.105-0.447c-0.051-0.104-0.125-0.191-0.218-0.262
		c-0.107-0.078-0.214-0.125-0.321-0.141h2.123c-0.104,0.016-0.208,0.059-0.312,0.137c-0.09,0.07-0.162,0.152-0.22,0.248
		c-0.07,0.125-0.104,0.268-0.107,0.43v3.275c0,0.932-0.305,1.711-0.92,2.352c-0.624,0.652-1.409,0.979-2.354,0.979
		c-0.947,0-1.731-0.326-2.357-0.979c-0.611-0.641-0.919-1.42-0.919-2.352c-0.004-2.09-0.004-3.168-0.004-3.24
		c0-0.17-0.032-0.322-0.099-0.447c-0.054-0.104-0.132-0.191-0.225-0.262c-0.108-0.078-0.216-0.125-0.323-0.141h2.136
		c-0.109,0.016-0.217,0.063-0.323,0.141c-0.095,0.07-0.167,0.158-0.219,0.262c-0.07,0.125-0.104,0.277-0.104,0.447v3.24
		c0,0.709,0.226,1.303,0.673,1.785c0.461,0.494,1.048,0.744,1.765,0.744c0.712,0,1.299-0.25,1.763-0.744
		c0.45-0.482,0.675-1.076,0.675-1.785C84.489,61.683,84.489,60.604,84.489,60.532z"/>
	<path fill="#FFFFFF" d="M90.479,59.677c0.238,0,0.483,0.037,0.735,0.111c0.3,0.088,0.562,0.219,0.796,0.385
		c0.604,0.441,0.904,1.086,0.904,1.943c0,0.557-0.163,1.049-0.494,1.479c-0.437,0.57-1.085,0.855-1.941,0.855l-0.105-0.004h-0.099
		c-0.08,0-0.148,0.01-0.204,0.025c-0.136,0.031-0.27,0.096-0.401,0.189c-0.138,0.102-0.21,0.199-0.21,0.289
		c0-0.377,0.095-0.678,0.28-0.906c0.193-0.234,0.438-0.352,0.739-0.352c0.686,0,1.167-0.242,1.449-0.723
		c0.091-0.16,0.154-0.34,0.2-0.535c0.008-0.068,0.019-0.137,0.024-0.203c0.004-0.025,0.004-0.051,0.004-0.072
		c0.004-0.016,0.009-0.033,0.009-0.043c0-0.682-0.264-1.166-0.783-1.449c-0.168-0.092-0.357-0.16-0.565-0.199H88.78l-0.005,5.59
		c0,0.174,0.031,0.326,0.095,0.453c0.052,0.102,0.122,0.188,0.212,0.256c0.105,0.08,0.208,0.127,0.312,0.146h-2.096
		c0.101-0.02,0.208-0.066,0.309-0.146c0.206-0.156,0.309-0.391,0.309-0.709v-5.525c0-0.17-0.028-0.322-0.097-0.451
		c-0.05-0.104-0.121-0.188-0.212-0.258c-0.101-0.078-0.208-0.125-0.309-0.146H90.479z"/>
</g>
</svg>
